<svg xmlns="http://www.w3.org/2000/svg" width="844" height="844" viewBox="488 0 356 400" fill="none" stroke="none"><defs></defs><g fill="#EFC171" fill-rule="evenodd" stroke="#000000" stroke-width="1" stroke-linecap="round" stroke-linejoin="round"><path d="M 0,0 L 0,844 L 844,844 L 844,0 Z"></path></g><g fill="#EFC171" fill-rule="evenodd" stroke="#000000" stroke-width="0.2" stroke-linecap="round" stroke-linejoin="round"><path d="M 22.211,22.211 L 22.211,821.789 Z"></path></g><g fill="#EFC171" fill-rule="evenodd" stroke="#000000" stroke-width="0.2" stroke-linecap="round" stroke-linejoin="round"><path d="M 22.211,22.211 L 821.789,22.211 Z"></path></g><g fill="#EFC171" fill-rule="evenodd" stroke="#000000" stroke-width="0.2" stroke-linecap="round" stroke-linejoin="round"><path d="M 66.632,22.211 L 66.632,821.789 Z"></path></g><g fill="#EFC171" fill-rule="evenodd" stroke="#000000" stroke-width="0.2" stroke-linecap="round" stroke-linejoin="round"><path d="M 22.211,66.632 L 821.789,66.632 Z"></path></g><g fill="#EFC171" fill-rule="evenodd" stroke="#000000" stroke-width="0.2" stroke-linecap="round" stroke-linejoin="round"><path d="M 111.053,22.211 L 111.053,821.789 Z"></path></g><g fill="#EFC171" fill-rule="evenodd" stroke="#000000" stroke-width="0.2" stroke-linecap="round" stroke-linejoin="round"><path d="M 22.211,111.053 L 821.789,111.053 Z"></path></g><g fill="#EFC171" fill-rule="evenodd" stroke="#000000" stroke-width="0.2" stroke-linecap="round" stroke-linejoin="round"><path d="M 155.474,22.211 L 155.474,821.789 Z"></path></g><g fill="#EFC171" fill-rule="evenodd" stroke="#000000" stroke-width="0.2" stroke-linecap="round" stroke-linejoin="round"><path d="M 22.211,155.474 L 821.789,155.474 Z"></path></g><g fill="#EFC171" fill-rule="evenodd" stroke="#000000" stroke-width="0.2" stroke-linecap="round" stroke-linejoin="round"><path d="M 199.895,22.211 L 199.895,821.789 Z"></path></g><g fill="#EFC171" fill-rule="evenodd" stroke="#000000" stroke-width="0.2" stroke-linecap="round" stroke-linejoin="round"><path d="M 22.211,199.895 L 821.789,199.895 Z"></path></g><g fill="#EFC171" fill-rule="evenodd" stroke="#000000" stroke-width="0.2" stroke-linecap="round" stroke-linejoin="round"><path d="M 244.316,22.211 L 244.316,821.789 Z"></path></g><g fill="#EFC171" fill-rule="evenodd" stroke="#000000" stroke-width="0.2" stroke-linecap="round" stroke-linejoin="round"><path d="M 22.211,244.316 L 821.789,244.316 Z"></path></g><g fill="#EFC171" fill-rule="evenodd" stroke="#000000" stroke-width="0.2" stroke-linecap="round" stroke-linejoin="round"><path d="M 288.737,22.211 L 288.737,821.789 Z"></path></g><g fill="#EFC171" fill-rule="evenodd" stroke="#000000" stroke-width="0.2" stroke-linecap="round" stroke-linejoin="round"><path d="M 22.211,288.737 L 821.789,288.737 Z"></path></g><g fill="#EFC171" fill-rule="evenodd" stroke="#000000" stroke-width="0.2" stroke-linecap="round" stroke-linejoin="round"><path d="M 333.158,22.211 L 333.158,821.789 Z"></path></g><g fill="#EFC171" fill-rule="evenodd" stroke="#000000" stroke-width="0.2" stroke-linecap="round" stroke-linejoin="round"><path d="M 22.211,333.158 L 821.789,333.158 Z"></path></g><g fill="#EFC171" fill-rule="evenodd" stroke="#000000" stroke-width="0.2" stroke-linecap="round" stroke-linejoin="round"><path d="M 377.579,22.211 L 377.579,821.789 Z"></path></g><g fill="#EFC171" fill-rule="evenodd" stroke="#000000" stroke-width="0.2" stroke-linecap="round" stroke-linejoin="round"><path d="M 22.211,377.579 L 821.789,377.579 Z"></path></g><g fill="#EFC171" fill-rule="evenodd" stroke="#000000" stroke-width="0.2" stroke-linecap="round" stroke-linejoin="round"><path d="M 422,22.211 L 422,821.789 Z"></path></g><g fill="#EFC171" fill-rule="evenodd" stroke="#000000" stroke-width="0.2" stroke-linecap="round" stroke-linejoin="round"><path d="M 22.211,422 L 821.789,422 Z"></path></g><g fill="#EFC171" fill-rule="evenodd" stroke="#000000" stroke-width="0.2" stroke-linecap="round" stroke-linejoin="round"><path d="M 466.421,22.211 L 466.421,821.789 Z"></path></g><g fill="#EFC171" fill-rule="evenodd" stroke="#000000" stroke-width="0.2" stroke-linecap="round" stroke-linejoin="round"><path d="M 22.211,466.421 L 821.789,466.421 Z"></path></g><g fill="#EFC171" fill-rule="evenodd" stroke="#000000" stroke-width="0.2" stroke-linecap="round" stroke-linejoin="round"><path d="M 510.842,22.211 L 510.842,821.789 Z"></path></g><g fill="#EFC171" fill-rule="evenodd" stroke="#000000" stroke-width="0.2" stroke-linecap="round" stroke-linejoin="round"><path d="M 22.211,510.842 L 821.789,510.842 Z"></path></g><g fill="#EFC171" fill-rule="evenodd" stroke="#000000" stroke-width="0.2" stroke-linecap="round" stroke-linejoin="round"><path d="M 555.263,22.211 L 555.263,821.789 Z"></path></g><g fill="#EFC171" fill-rule="evenodd" stroke="#000000" stroke-width="0.2" stroke-linecap="round" stroke-linejoin="round"><path d="M 22.211,555.263 L 821.789,555.263 Z"></path></g><g fill="#EFC171" fill-rule="evenodd" stroke="#000000" stroke-width="0.2" stroke-linecap="round" stroke-linejoin="round"><path d="M 599.684,22.211 L 599.684,821.789 Z"></path></g><g fill="#EFC171" fill-rule="evenodd" stroke="#000000" stroke-width="0.2" stroke-linecap="round" stroke-linejoin="round"><path d="M 22.211,599.684 L 821.789,599.684 Z"></path></g><g fill="#EFC171" fill-rule="evenodd" stroke="#000000" stroke-width="0.2" stroke-linecap="round" stroke-linejoin="round"><path d="M 644.105,22.211 L 644.105,821.789 Z"></path></g><g fill="#EFC171" fill-rule="evenodd" stroke="#000000" stroke-width="0.2" stroke-linecap="round" stroke-linejoin="round"><path d="M 22.211,644.105 L 821.789,644.105 Z"></path></g><g fill="#EFC171" fill-rule="evenodd" stroke="#000000" stroke-width="0.2" stroke-linecap="round" stroke-linejoin="round"><path d="M 688.526,22.211 L 688.526,821.789 Z"></path></g><g fill="#EFC171" fill-rule="evenodd" stroke="#000000" stroke-width="0.2" stroke-linecap="round" stroke-linejoin="round"><path d="M 22.211,688.526 L 821.789,688.526 Z"></path></g><g fill="#EFC171" fill-rule="evenodd" stroke="#000000" stroke-width="0.2" stroke-linecap="round" stroke-linejoin="round"><path d="M 732.947,22.211 L 732.947,821.789 Z"></path></g><g fill="#EFC171" fill-rule="evenodd" stroke="#000000" stroke-width="0.2" stroke-linecap="round" stroke-linejoin="round"><path d="M 22.211,732.947 L 821.789,732.947 Z"></path></g><g fill="#EFC171" fill-rule="evenodd" stroke="#000000" stroke-width="0.2" stroke-linecap="round" stroke-linejoin="round"><path d="M 777.368,22.211 L 777.368,821.789 Z"></path></g><g fill="#EFC171" fill-rule="evenodd" stroke="#000000" stroke-width="0.2" stroke-linecap="round" stroke-linejoin="round"><path d="M 22.211,777.368 L 821.789,777.368 Z"></path></g><g fill="#EFC171" fill-rule="evenodd" stroke="#000000" stroke-width="0.2" stroke-linecap="round" stroke-linejoin="round"><path d="M 821.789,22.211 L 821.789,821.789 Z"></path></g><g fill="#EFC171" fill-rule="evenodd" stroke="#000000" stroke-width="0.2" stroke-linecap="round" stroke-linejoin="round"><path d="M 22.211,821.789 L 821.789,821.789 Z"></path></g><g fill="#000000" fill-rule="evenodd" stroke="#000000" stroke-width="0.2" stroke-linecap="round" stroke-linejoin="round"><path d="M 159.916,155.474 A 4.442 4.442 0 1 1 159.915789 155.463684 Z"></path></g><g fill="#000000" fill-rule="evenodd" stroke="#000000" stroke-width="0.2" stroke-linecap="round" stroke-linejoin="round"><path d="M 159.916,422 A 4.442 4.442 0 1 1 159.915789 421.99 Z"></path></g><g fill="#000000" fill-rule="evenodd" stroke="#000000" stroke-width="0.2" stroke-linecap="round" stroke-linejoin="round"><path d="M 159.916,688.526 A 4.442 4.442 0 1 1 159.915789 688.516316 Z"></path></g><g fill="#000000" fill-rule="evenodd" stroke="#000000" stroke-width="0.2" stroke-linecap="round" stroke-linejoin="round"><path d="M 426.442,155.474 A 4.442 4.442 0 1 1 426.442105 155.463684 Z"></path></g><g fill="#000000" fill-rule="evenodd" stroke="#000000" stroke-width="0.2" stroke-linecap="round" stroke-linejoin="round"><path d="M 426.442,422 A 4.442 4.442 0 1 1 426.442105 421.99 Z"></path></g><g fill="#000000" fill-rule="evenodd" stroke="#000000" stroke-width="0.2" stroke-linecap="round" stroke-linejoin="round"><path d="M 426.442,688.526 A 4.442 4.442 0 1 1 426.442105 688.516316 Z"></path></g><g fill="#000000" fill-rule="evenodd" stroke="#000000" stroke-width="0.2" stroke-linecap="round" stroke-linejoin="round"><path d="M 692.968,155.474 A 4.442 4.442 0 1 1 692.968421 155.463684 Z"></path></g><g fill="#000000" fill-rule="evenodd" stroke="#000000" stroke-width="0.2" stroke-linecap="round" stroke-linejoin="round"><path d="M 692.968,422 A 4.442 4.442 0 1 1 692.968421 421.99 Z"></path></g><g fill="#000000" fill-rule="evenodd" stroke="#000000" stroke-width="0.2" stroke-linecap="round" stroke-linejoin="round"><path d="M 692.968,688.526 A 4.442 4.442 0 1 1 692.968421 688.516316 Z"></path></g><g fill="#FFFFFF" fill-rule="evenodd" stroke="#000000" stroke-width="0.5" stroke-linecap="round" stroke-linejoin="round"><path d="M 619.674,111.053 A 19.989 19.989 0 1 1 619.673684 111.042632 Z"></path></g><g fill="#000000" fill-rule="evenodd" stroke="#000000" stroke-width="0.5" stroke-linecap="round" stroke-linejoin="round"><path d="M 708.516,155.474 A 19.989 19.989 0 1 1 708.515789 155.463684 Z"></path></g><g fill="#000000" fill-rule="evenodd" stroke="#000000" stroke-width="0.5" stroke-linecap="round" stroke-linejoin="round"><path d="M 752.937,288.737 A 19.989 19.989 0 1 1 752.936842 288.726842 Z"></path></g><g fill="#FFFFFF" fill-rule="evenodd" stroke="#FFFFFF" stroke-width="0.4" stroke-linecap="round" stroke-linejoin="round"><path d="M 738.5,288.737 A 5.553 5.553 0 1 1 738.5 288.726842 Z"></path></g></svg>