<svg xmlns="http://www.w3.org/2000/svg" width="633" height="633" viewBox="0 233 267 400" fill="none" stroke="none"><defs></defs><g fill="#EFC171" fill-rule="evenodd" stroke="#000000" stroke-width="1" stroke-linecap="round" stroke-linejoin="round"><path d="M 0,0 L 0,633 L 633,633 L 633,0 Z"></path></g><g fill="#EFC171" fill-rule="evenodd" stroke="#000000" stroke-width="0.2" stroke-linecap="round" stroke-linejoin="round"><path d="M 16.658,16.658 L 16.658,616.342 Z"></path></g><g fill="#EFC171" fill-rule="evenodd" stroke="#000000" stroke-width="0.2" stroke-linecap="round" stroke-linejoin="round"><path d="M 16.658,16.658 L 616.342,16.658 Z"></path></g><g fill="#EFC171" fill-rule="evenodd" stroke="#000000" stroke-width="0.2" stroke-linecap="round" stroke-linejoin="round"><path d="M 49.974,16.658 L 49.974,616.342 Z"></path></g><g fill="#EFC171" fill-rule="evenodd" stroke="#000000" stroke-width="0.2" stroke-linecap="round" stroke-linejoin="round"><path d="M 16.658,49.974 L 616.342,49.974 Z"></path></g><g fill="#EFC171" fill-rule="evenodd" stroke="#000000" stroke-width="0.2" stroke-linecap="round" stroke-linejoin="round"><path d="M 83.289,16.658 L 83.289,616.342 Z"></path></g><g fill="#EFC171" fill-rule="evenodd" stroke="#000000" stroke-width="0.2" stroke-linecap="round" stroke-linejoin="round"><path d="M 16.658,83.289 L 616.342,83.289 Z"></path></g><g fill="#EFC171" fill-rule="evenodd" stroke="#000000" stroke-width="0.2" stroke-linecap="round" stroke-linejoin="round"><path d="M 116.605,16.658 L 116.605,616.342 Z"></path></g><g fill="#EFC171" fill-rule="evenodd" stroke="#000000" stroke-width="0.2" stroke-linecap="round" stroke-linejoin="round"><path d="M 16.658,116.605 L 616.342,116.605 Z"></path></g><g fill="#EFC171" fill-rule="evenodd" stroke="#000000" stroke-width="0.2" stroke-linecap="round" stroke-linejoin="round"><path d="M 149.921,16.658 L 149.921,616.342 Z"></path></g><g fill="#EFC171" fill-rule="evenodd" stroke="#000000" stroke-width="0.2" stroke-linecap="round" stroke-linejoin="round"><path d="M 16.658,149.921 L 616.342,149.921 Z"></path></g><g fill="#EFC171" fill-rule="evenodd" stroke="#000000" stroke-width="0.2" stroke-linecap="round" stroke-linejoin="round"><path d="M 183.237,16.658 L 183.237,616.342 Z"></path></g><g fill="#EFC171" fill-rule="evenodd" stroke="#000000" stroke-width="0.2" stroke-linecap="round" stroke-linejoin="round"><path d="M 16.658,183.237 L 616.342,183.237 Z"></path></g><g fill="#EFC171" fill-rule="evenodd" stroke="#000000" stroke-width="0.2" stroke-linecap="round" stroke-linejoin="round"><path d="M 216.553,16.658 L 216.553,616.342 Z"></path></g><g fill="#EFC171" fill-rule="evenodd" stroke="#000000" stroke-width="0.2" stroke-linecap="round" stroke-linejoin="round"><path d="M 16.658,216.553 L 616.342,216.553 Z"></path></g><g fill="#EFC171" fill-rule="evenodd" stroke="#000000" stroke-width="0.2" stroke-linecap="round" stroke-linejoin="round"><path d="M 249.868,16.658 L 249.868,616.342 Z"></path></g><g fill="#EFC171" fill-rule="evenodd" stroke="#000000" stroke-width="0.2" stroke-linecap="round" stroke-linejoin="round"><path d="M 16.658,249.868 L 616.342,249.868 Z"></path></g><g fill="#EFC171" fill-rule="evenodd" stroke="#000000" stroke-width="0.2" stroke-linecap="round" stroke-linejoin="round"><path d="M 283.184,16.658 L 283.184,616.342 Z"></path></g><g fill="#EFC171" fill-rule="evenodd" stroke="#000000" stroke-width="0.2" stroke-linecap="round" stroke-linejoin="round"><path d="M 16.658,283.184 L 616.342,283.184 Z"></path></g><g fill="#EFC171" fill-rule="evenodd" stroke="#000000" stroke-width="0.2" stroke-linecap="round" stroke-linejoin="round"><path d="M 316.5,16.658 L 316.5,616.342 Z"></path></g><g fill="#EFC171" fill-rule="evenodd" stroke="#000000" stroke-width="0.2" stroke-linecap="round" stroke-linejoin="round"><path d="M 16.658,316.5 L 616.342,316.5 Z"></path></g><g fill="#EFC171" fill-rule="evenodd" stroke="#000000" stroke-width="0.2" stroke-linecap="round" stroke-linejoin="round"><path d="M 349.816,16.658 L 349.816,616.342 Z"></path></g><g fill="#EFC171" fill-rule="evenodd" stroke="#000000" stroke-width="0.2" stroke-linecap="round" stroke-linejoin="round"><path d="M 16.658,349.816 L 616.342,349.816 Z"></path></g><g fill="#EFC171" fill-rule="evenodd" stroke="#000000" stroke-width="0.2" stroke-linecap="round" stroke-linejoin="round"><path d="M 383.132,16.658 L 383.132,616.342 Z"></path></g><g fill="#EFC171" fill-rule="evenodd" stroke="#000000" stroke-width="0.2" stroke-linecap="round" stroke-linejoin="round"><path d="M 16.658,383.132 L 616.342,383.132 Z"></path></g><g fill="#EFC171" fill-rule="evenodd" stroke="#000000" stroke-width="0.2" stroke-linecap="round" stroke-linejoin="round"><path d="M 416.447,16.658 L 416.447,616.342 Z"></path></g><g fill="#EFC171" fill-rule="evenodd" stroke="#000000" stroke-width="0.2" stroke-linecap="round" stroke-linejoin="round"><path d="M 16.658,416.447 L 616.342,416.447 Z"></path></g><g fill="#EFC171" fill-rule="evenodd" stroke="#000000" stroke-width="0.2" stroke-linecap="round" stroke-linejoin="round"><path d="M 449.763,16.658 L 449.763,616.342 Z"></path></g><g fill="#EFC171" fill-rule="evenodd" stroke="#000000" stroke-width="0.2" stroke-linecap="round" stroke-linejoin="round"><path d="M 16.658,449.763 L 616.342,449.763 Z"></path></g><g fill="#EFC171" fill-rule="evenodd" stroke="#000000" stroke-width="0.2" stroke-linecap="round" stroke-linejoin="round"><path d="M 483.079,16.658 L 483.079,616.342 Z"></path></g><g fill="#EFC171" fill-rule="evenodd" stroke="#000000" stroke-width="0.2" stroke-linecap="round" stroke-linejoin="round"><path d="M 16.658,483.079 L 616.342,483.079 Z"></path></g><g fill="#EFC171" fill-rule="evenodd" stroke="#000000" stroke-width="0.2" stroke-linecap="round" stroke-linejoin="round"><path d="M 516.395,16.658 L 516.395,616.342 Z"></path></g><g fill="#EFC171" fill-rule="evenodd" stroke="#000000" stroke-width="0.2" stroke-linecap="round" stroke-linejoin="round"><path d="M 16.658,516.395 L 616.342,516.395 Z"></path></g><g fill="#EFC171" fill-rule="evenodd" stroke="#000000" stroke-width="0.2" stroke-linecap="round" stroke-linejoin="round"><path d="M 549.711,16.658 L 549.711,616.342 Z"></path></g><g fill="#EFC171" fill-rule="evenodd" stroke="#000000" stroke-width="0.2" stroke-linecap="round" stroke-linejoin="round"><path d="M 16.658,549.711 L 616.342,549.711 Z"></path></g><g fill="#EFC171" fill-rule="evenodd" stroke="#000000" stroke-width="0.2" stroke-linecap="round" stroke-linejoin="round"><path d="M 583.026,16.658 L 583.026,616.342 Z"></path></g><g fill="#EFC171" fill-rule="evenodd" stroke="#000000" stroke-width="0.2" stroke-linecap="round" stroke-linejoin="round"><path d="M 16.658,583.026 L 616.342,583.026 Z"></path></g><g fill="#EFC171" fill-rule="evenodd" stroke="#000000" stroke-width="0.2" stroke-linecap="round" stroke-linejoin="round"><path d="M 616.342,16.658 L 616.342,616.342 Z"></path></g><g fill="#EFC171" fill-rule="evenodd" stroke="#000000" stroke-width="0.2" stroke-linecap="round" stroke-linejoin="round"><path d="M 16.658,616.342 L 616.342,616.342 Z"></path></g><g fill="#000000" fill-rule="evenodd" stroke="#000000" stroke-width="0.2" stroke-linecap="round" stroke-linejoin="round"><path d="M 119.937,116.605 A 3.332 3.332 0 1 1 119.936842 116.595263 Z"></path></g><g fill="#000000" fill-rule="evenodd" stroke="#000000" stroke-width="0.2" stroke-linecap="round" stroke-linejoin="round"><path d="M 119.937,316.5 A 3.332 3.332 0 1 1 119.936842 316.49 Z"></path></g><g fill="#000000" fill-rule="evenodd" stroke="#000000" stroke-width="0.2" stroke-linecap="round" stroke-linejoin="round"><path d="M 119.937,516.395 A 3.332 3.332 0 1 1 119.936842 516.384737 Z"></path></g><g fill="#000000" fill-rule="evenodd" stroke="#000000" stroke-width="0.2" stroke-linecap="round" stroke-linejoin="round"><path d="M 319.832,116.605 A 3.332 3.332 0 1 1 319.831579 116.595263 Z"></path></g><g fill="#000000" fill-rule="evenodd" stroke="#000000" stroke-width="0.2" stroke-linecap="round" stroke-linejoin="round"><path d="M 319.832,316.5 A 3.332 3.332 0 1 1 319.831579 316.49 Z"></path></g><g fill="#000000" fill-rule="evenodd" stroke="#000000" stroke-width="0.2" stroke-linecap="round" stroke-linejoin="round"><path d="M 319.832,516.395 A 3.332 3.332 0 1 1 319.831579 516.384737 Z"></path></g><g fill="#000000" fill-rule="evenodd" stroke="#000000" stroke-width="0.2" stroke-linecap="round" stroke-linejoin="round"><path d="M 519.726,116.605 A 3.332 3.332 0 1 1 519.726316 116.595263 Z"></path></g><g fill="#000000" fill-rule="evenodd" stroke="#000000" stroke-width="0.2" stroke-linecap="round" stroke-linejoin="round"><path d="M 519.726,316.5 A 3.332 3.332 0 1 1 519.726316 316.49 Z"></path></g><g fill="#000000" fill-rule="evenodd" stroke="#000000" stroke-width="0.2" stroke-linecap="round" stroke-linejoin="round"><path d="M 519.726,516.395 A 3.332 3.332 0 1 1 519.726316 516.384737 Z"></path></g><g fill="#FFFFFF" fill-rule="evenodd" stroke="#000000" stroke-width="0.5" stroke-linecap="round" stroke-linejoin="round"><path d="M 98.282,316.5 A 14.992 14.992 0 1 1 98.281579 316.49 Z"></path></g><g fill="#000000" fill-rule="evenodd" stroke="#000000" stroke-width="0.5" stroke-linecap="round" stroke-linejoin="round"><path d="M 98.282,416.447 A 14.992 14.992 0 1 1 98.281579 416.437368 Z"></path></g><g fill="#000000" fill-rule="evenodd" stroke="#000000" stroke-width="0.5" stroke-linecap="round" stroke-linejoin="round"><path d="M 131.597,516.395 A 14.992 14.992 0 1 1 131.597368 516.384737 Z"></path></g><g fill="#FFFFFF" fill-rule="evenodd" stroke="#000000" stroke-width="0.5" stroke-linecap="round" stroke-linejoin="round"><path d="M 198.229,549.711 A 14.992 14.992 0 1 1 198.228947 549.700526 Z"></path></g><g fill="#000000" fill-rule="evenodd" stroke="#000000" stroke-width="0.4" stroke-linecap="round" stroke-linejoin="round"><path d="M 87.454,316.5 A 4.164 4.164 0 1 1 87.453947 316.49 Z"></path></g></svg>