<svg xmlns="http://www.w3.org/2000/svg" width="400" height="400" fill="none" stroke="none"><defs></defs><g fill="#EFC171" fill-rule="evenodd" stroke="#000000" stroke-width="1" stroke-linecap="round" stroke-linejoin="round"><path d="M 0,0 L 0,400 L 400,400 L 400,0 Z"></path></g><g fill="#EFC171" fill-rule="evenodd" stroke="#000000" stroke-width="0.2" stroke-linecap="round" stroke-linejoin="round"><path d="M 10.526,10.526 L 10.526,389.474 Z"></path></g><g fill="#EFC171" fill-rule="evenodd" stroke="#000000" stroke-width="0.2" stroke-linecap="round" stroke-linejoin="round"><path d="M 10.526,10.526 L 389.474,10.526 Z"></path></g><g fill="#EFC171" fill-rule="evenodd" stroke="#000000" stroke-width="0.2" stroke-linecap="round" stroke-linejoin="round"><path d="M 31.579,10.526 L 31.579,389.474 Z"></path></g><g fill="#EFC171" fill-rule="evenodd" stroke="#000000" stroke-width="0.2" stroke-linecap="round" stroke-linejoin="round"><path d="M 10.526,31.579 L 389.474,31.579 Z"></path></g><g fill="#EFC171" fill-rule="evenodd" stroke="#000000" stroke-width="0.2" stroke-linecap="round" stroke-linejoin="round"><path d="M 52.632,10.526 L 52.632,389.474 Z"></path></g><g fill="#EFC171" fill-rule="evenodd" stroke="#000000" stroke-width="0.2" stroke-linecap="round" stroke-linejoin="round"><path d="M 10.526,52.632 L 389.474,52.632 Z"></path></g><g fill="#EFC171" fill-rule="evenodd" stroke="#000000" stroke-width="0.2" stroke-linecap="round" stroke-linejoin="round"><path d="M 73.684,10.526 L 73.684,389.474 Z"></path></g><g fill="#EFC171" fill-rule="evenodd" stroke="#000000" stroke-width="0.2" stroke-linecap="round" stroke-linejoin="round"><path d="M 10.526,73.684 L 389.474,73.684 Z"></path></g><g fill="#EFC171" fill-rule="evenodd" stroke="#000000" stroke-width="0.2" stroke-linecap="round" stroke-linejoin="round"><path d="M 94.737,10.526 L 94.737,389.474 Z"></path></g><g fill="#EFC171" fill-rule="evenodd" stroke="#000000" stroke-width="0.2" stroke-linecap="round" stroke-linejoin="round"><path d="M 10.526,94.737 L 389.474,94.737 Z"></path></g><g fill="#EFC171" fill-rule="evenodd" stroke="#000000" stroke-width="0.2" stroke-linecap="round" stroke-linejoin="round"><path d="M 115.789,10.526 L 115.789,389.474 Z"></path></g><g fill="#EFC171" fill-rule="evenodd" stroke="#000000" stroke-width="0.2" stroke-linecap="round" stroke-linejoin="round"><path d="M 10.526,115.789 L 389.474,115.789 Z"></path></g><g fill="#EFC171" fill-rule="evenodd" stroke="#000000" stroke-width="0.2" stroke-linecap="round" stroke-linejoin="round"><path d="M 136.842,10.526 L 136.842,389.474 Z"></path></g><g fill="#EFC171" fill-rule="evenodd" stroke="#000000" stroke-width="0.2" stroke-linecap="round" stroke-linejoin="round"><path d="M 10.526,136.842 L 389.474,136.842 Z"></path></g><g fill="#EFC171" fill-rule="evenodd" stroke="#000000" stroke-width="0.2" stroke-linecap="round" stroke-linejoin="round"><path d="M 157.895,10.526 L 157.895,389.474 Z"></path></g><g fill="#EFC171" fill-rule="evenodd" stroke="#000000" stroke-width="0.2" stroke-linecap="round" stroke-linejoin="round"><path d="M 10.526,157.895 L 389.474,157.895 Z"></path></g><g fill="#EFC171" fill-rule="evenodd" stroke="#000000" stroke-width="0.2" stroke-linecap="round" stroke-linejoin="round"><path d="M 178.947,10.526 L 178.947,389.474 Z"></path></g><g fill="#EFC171" fill-rule="evenodd" stroke="#000000" stroke-width="0.2" stroke-linecap="round" stroke-linejoin="round"><path d="M 10.526,178.947 L 389.474,178.947 Z"></path></g><g fill="#EFC171" fill-rule="evenodd" stroke="#000000" stroke-width="0.2" stroke-linecap="round" stroke-linejoin="round"><path d="M 200,10.526 L 200,389.474 Z"></path></g><g fill="#EFC171" fill-rule="evenodd" stroke="#000000" stroke-width="0.2" stroke-linecap="round" stroke-linejoin="round"><path d="M 10.526,200 L 389.474,200 Z"></path></g><g fill="#EFC171" fill-rule="evenodd" stroke="#000000" stroke-width="0.2" stroke-linecap="round" stroke-linejoin="round"><path d="M 221.053,10.526 L 221.053,389.474 Z"></path></g><g fill="#EFC171" fill-rule="evenodd" stroke="#000000" stroke-width="0.2" stroke-linecap="round" stroke-linejoin="round"><path d="M 10.526,221.053 L 389.474,221.053 Z"></path></g><g fill="#EFC171" fill-rule="evenodd" stroke="#000000" stroke-width="0.2" stroke-linecap="round" stroke-linejoin="round"><path d="M 242.105,10.526 L 242.105,389.474 Z"></path></g><g fill="#EFC171" fill-rule="evenodd" stroke="#000000" stroke-width="0.2" stroke-linecap="round" stroke-linejoin="round"><path d="M 10.526,242.105 L 389.474,242.105 Z"></path></g><g fill="#EFC171" fill-rule="evenodd" stroke="#000000" stroke-width="0.2" stroke-linecap="round" stroke-linejoin="round"><path d="M 263.158,10.526 L 263.158,389.474 Z"></path></g><g fill="#EFC171" fill-rule="evenodd" stroke="#000000" stroke-width="0.2" stroke-linecap="round" stroke-linejoin="round"><path d="M 10.526,263.158 L 389.474,263.158 Z"></path></g><g fill="#EFC171" fill-rule="evenodd" stroke="#000000" stroke-width="0.2" stroke-linecap="round" stroke-linejoin="round"><path d="M 284.211,10.526 L 284.211,389.474 Z"></path></g><g fill="#EFC171" fill-rule="evenodd" stroke="#000000" stroke-width="0.2" stroke-linecap="round" stroke-linejoin="round"><path d="M 10.526,284.211 L 389.474,284.211 Z"></path></g><g fill="#EFC171" fill-rule="evenodd" stroke="#000000" stroke-width="0.2" stroke-linecap="round" stroke-linejoin="round"><path d="M 305.263,10.526 L 305.263,389.474 Z"></path></g><g fill="#EFC171" fill-rule="evenodd" stroke="#000000" stroke-width="0.2" stroke-linecap="round" stroke-linejoin="round"><path d="M 10.526,305.263 L 389.474,305.263 Z"></path></g><g fill="#EFC171" fill-rule="evenodd" stroke="#000000" stroke-width="0.2" stroke-linecap="round" stroke-linejoin="round"><path d="M 326.316,10.526 L 326.316,389.474 Z"></path></g><g fill="#EFC171" fill-rule="evenodd" stroke="#000000" stroke-width="0.2" stroke-linecap="round" stroke-linejoin="round"><path d="M 10.526,326.316 L 389.474,326.316 Z"></path></g><g fill="#EFC171" fill-rule="evenodd" stroke="#000000" stroke-width="0.2" stroke-linecap="round" stroke-linejoin="round"><path d="M 347.368,10.526 L 347.368,389.474 Z"></path></g><g fill="#EFC171" fill-rule="evenodd" stroke="#000000" stroke-width="0.2" stroke-linecap="round" stroke-linejoin="round"><path d="M 10.526,347.368 L 389.474,347.368 Z"></path></g><g fill="#EFC171" fill-rule="evenodd" stroke="#000000" stroke-width="0.2" stroke-linecap="round" stroke-linejoin="round"><path d="M 368.421,10.526 L 368.421,389.474 Z"></path></g><g fill="#EFC171" fill-rule="evenodd" stroke="#000000" stroke-width="0.2" stroke-linecap="round" stroke-linejoin="round"><path d="M 10.526,368.421 L 389.474,368.421 Z"></path></g><g fill="#EFC171" fill-rule="evenodd" stroke="#000000" stroke-width="0.2" stroke-linecap="round" stroke-linejoin="round"><path d="M 389.474,10.526 L 389.474,389.474 Z"></path></g><g fill="#EFC171" fill-rule="evenodd" stroke="#000000" stroke-width="0.2" stroke-linecap="round" stroke-linejoin="round"><path d="M 10.526,389.474 L 389.474,389.474 Z"></path></g><g fill="#000000" fill-rule="evenodd" stroke="#000000" stroke-width="0.2" stroke-linecap="round" stroke-linejoin="round"><path d="M 75.789,73.684 A 2.105 2.105 0 1 1 75.789474 73.674211 Z"></path></g><g fill="#000000" fill-rule="evenodd" stroke="#000000" stroke-width="0.2" stroke-linecap="round" stroke-linejoin="round"><path d="M 75.789,200 A 2.105 2.105 0 1 1 75.789474 199.99 Z"></path></g><g fill="#000000" fill-rule="evenodd" stroke="#000000" stroke-width="0.2" stroke-linecap="round" stroke-linejoin="round"><path d="M 75.789,326.316 A 2.105 2.105 0 1 1 75.789474 326.305789 Z"></path></g><g fill="#000000" fill-rule="evenodd" stroke="#000000" stroke-width="0.2" stroke-linecap="round" stroke-linejoin="round"><path d="M 202.105,73.684 A 2.105 2.105 0 1 1 202.105263 73.674211 Z"></path></g><g fill="#000000" fill-rule="evenodd" stroke="#000000" stroke-width="0.2" stroke-linecap="round" stroke-linejoin="round"><path d="M 202.105,200 A 2.105 2.105 0 1 1 202.105263 199.99 Z"></path></g><g fill="#000000" fill-rule="evenodd" stroke="#000000" stroke-width="0.2" stroke-linecap="round" stroke-linejoin="round"><path d="M 202.105,326.316 A 2.105 2.105 0 1 1 202.105263 326.305789 Z"></path></g><g fill="#000000" fill-rule="evenodd" stroke="#000000" stroke-width="0.2" stroke-linecap="round" stroke-linejoin="round"><path d="M 328.421,73.684 A 2.105 2.105 0 1 1 328.421053 73.674211 Z"></path></g><g fill="#000000" fill-rule="evenodd" stroke="#000000" stroke-width="0.2" stroke-linecap="round" stroke-linejoin="round"><path d="M 328.421,200 A 2.105 2.105 0 1 1 328.421053 199.99 Z"></path></g><g fill="#000000" fill-rule="evenodd" stroke="#000000" stroke-width="0.2" stroke-linecap="round" stroke-linejoin="round"><path d="M 328.421,326.316 A 2.105 2.105 0 1 1 328.421053 326.305789 Z"></path></g><g fill="#FFFFFF" fill-rule="evenodd" stroke="#000000" stroke-width="0.5" stroke-linecap="round" stroke-linejoin="round"><path d="M 83.158,52.632 A 9.474 9.474 0 1 1 83.157895 52.621579 Z"></path></g><g fill="#FFFFFF" fill-rule="evenodd" stroke="#000000" stroke-width="0.5" stroke-linecap="round" stroke-linejoin="round"><path d="M 83.158,94.737 A 9.474 9.474 0 1 1 83.157895 94.726842 Z"></path></g><g fill="#FFFFFF" fill-rule="evenodd" stroke="#000000" stroke-width="0.5" stroke-linecap="round" stroke-linejoin="round"><path d="M 83.158,305.263 A 9.474 9.474 0 1 1 83.157895 305.253158 Z"></path></g><g fill="#FFFFFF" fill-rule="evenodd" stroke="#000000" stroke-width="0.5" stroke-linecap="round" stroke-linejoin="round"><path d="M 83.158,347.368 A 9.474 9.474 0 1 1 83.157895 347.358421 Z"></path></g><g fill="#000000" fill-rule="evenodd" stroke="#000000" stroke-width="0.5" stroke-linecap="round" stroke-linejoin="round"><path d="M 167.368,52.632 A 9.474 9.474 0 1 1 167.368421 52.621579 Z"></path></g><g fill="#000000" fill-rule="evenodd" stroke="#000000" stroke-width="0.5" stroke-linecap="round" stroke-linejoin="round"><path d="M 209.474,326.316 A 9.474 9.474 0 1 1 209.473684 326.305789 Z"></path></g><g fill="#FFFFFF" fill-rule="evenodd" stroke="#000000" stroke-width="0.5" stroke-linecap="round" stroke-linejoin="round"><path d="M 209.474,347.368 A 9.474 9.474 0 1 1 209.473684 347.358421 Z"></path></g><g fill="#FFFFFF" fill-rule="evenodd" stroke="#000000" stroke-width="0.5" stroke-linecap="round" stroke-linejoin="round"><path d="M 230.526,31.579 A 9.474 9.474 0 1 1 230.526316 31.568947 Z"></path></g><g fill="#000000" fill-rule="evenodd" stroke="#000000" stroke-width="0.5" stroke-linecap="round" stroke-linejoin="round"><path d="M 230.526,52.632 A 9.474 9.474 0 1 1 230.526316 52.621579 Z"></path></g><g fill="#FFFFFF" fill-rule="evenodd" stroke="#000000" stroke-width="0.5" stroke-linecap="round" stroke-linejoin="round"><path d="M 230.526,347.368 A 9.474 9.474 0 1 1 230.526316 347.358421 Z"></path></g><g fill="#FFFFFF" fill-rule="evenodd" stroke="#000000" stroke-width="0.5" stroke-linecap="round" stroke-linejoin="round"><path d="M 272.632,52.632 A 9.474 9.474 0 1 1 272.631579 52.621579 Z"></path></g><g fill="#FFFFFF" fill-rule="evenodd" stroke="#000000" stroke-width="0.5" stroke-linecap="round" stroke-linejoin="round"><path d="M 272.632,305.263 A 9.474 9.474 0 1 1 272.631579 305.253158 Z"></path></g><g fill="#000000" fill-rule="evenodd" stroke="#000000" stroke-width="0.5" stroke-linecap="round" stroke-linejoin="round"><path d="M 293.684,263.158 A 9.474 9.474 0 1 1 293.684211 263.147895 Z"></path></g><g fill="#FFFFFF" fill-rule="evenodd" stroke="#000000" stroke-width="0.5" stroke-linecap="round" stroke-linejoin="round"><path d="M 293.684,347.368 A 9.474 9.474 0 1 1 293.684211 347.358421 Z"></path></g><g fill="#FFFFFF" fill-rule="evenodd" stroke="#000000" stroke-width="0.5" stroke-linecap="round" stroke-linejoin="round"><path d="M 314.737,31.579 A 9.474 9.474 0 1 1 314.736842 31.568947 Z"></path></g><g fill="#000000" fill-rule="evenodd" stroke="#000000" stroke-width="0.5" stroke-linecap="round" stroke-linejoin="round"><path d="M 314.737,52.632 A 9.474 9.474 0 1 1 314.736842 52.621579 Z"></path></g><g fill="#000000" fill-rule="evenodd" stroke="#000000" stroke-width="0.5" stroke-linecap="round" stroke-linejoin="round"><path d="M 314.737,73.684 A 9.474 9.474 0 1 1 314.736842 73.674211 Z"></path></g><g fill="#000000" fill-rule="evenodd" stroke="#000000" stroke-width="0.5" stroke-linecap="round" stroke-linejoin="round"><path d="M 314.737,221.053 A 9.474 9.474 0 1 1 314.736842 221.042632 Z"></path></g><g fill="#000000" fill-rule="evenodd" stroke="#000000" stroke-width="0.5" stroke-linecap="round" stroke-linejoin="round"><path d="M 314.737,263.158 A 9.474 9.474 0 1 1 314.736842 263.147895 Z"></path></g><g fill="#FFFFFF" fill-rule="evenodd" stroke="#000000" stroke-width="0.5" stroke-linecap="round" stroke-linejoin="round"><path d="M 314.737,284.211 A 9.474 9.474 0 1 1 314.736842 284.200526 Z"></path></g><g fill="#FFFFFF" fill-rule="evenodd" stroke="#000000" stroke-width="0.5" stroke-linecap="round" stroke-linejoin="round"><path d="M 314.737,305.263 A 9.474 9.474 0 1 1 314.736842 305.253158 Z"></path></g><g fill="#FFFFFF" fill-rule="evenodd" stroke="#000000" stroke-width="0.5" stroke-linecap="round" stroke-linejoin="round"><path d="M 314.737,368.421 A 9.474 9.474 0 1 1 314.736842 368.411053 Z"></path></g><g fill="#FFFFFF" fill-rule="evenodd" stroke="#000000" stroke-width="0.5" stroke-linecap="round" stroke-linejoin="round"><path d="M 335.789,31.579 A 9.474 9.474 0 1 1 335.789474 31.568947 Z"></path></g><g fill="#FFFFFF" fill-rule="evenodd" stroke="#000000" stroke-width="0.5" stroke-linecap="round" stroke-linejoin="round"><path d="M 335.789,52.632 A 9.474 9.474 0 1 1 335.789474 52.621579 Z"></path></g><g fill="#000000" fill-rule="evenodd" stroke="#000000" stroke-width="0.5" stroke-linecap="round" stroke-linejoin="round"><path d="M 335.789,73.684 A 9.474 9.474 0 1 1 335.789474 73.674211 Z"></path></g><g fill="#000000" fill-rule="evenodd" stroke="#000000" stroke-width="0.5" stroke-linecap="round" stroke-linejoin="round"><path d="M 335.789,157.895 A 9.474 9.474 0 1 1 335.789474 157.884737 Z"></path></g><g fill="#000000" fill-rule="evenodd" stroke="#000000" stroke-width="0.5" stroke-linecap="round" stroke-linejoin="round"><path d="M 335.789,221.053 A 9.474 9.474 0 1 1 335.789474 221.042632 Z"></path></g><g fill="#FFFFFF" fill-rule="evenodd" stroke="#000000" stroke-width="0.5" stroke-linecap="round" stroke-linejoin="round"><path d="M 335.789,242.105 A 9.474 9.474 0 1 1 335.789474 242.095263 Z"></path></g><g fill="#000000" fill-rule="evenodd" stroke="#000000" stroke-width="0.5" stroke-linecap="round" stroke-linejoin="round"><path d="M 335.789,263.158 A 9.474 9.474 0 1 1 335.789474 263.147895 Z"></path></g><g fill="#FFFFFF" fill-rule="evenodd" stroke="#000000" stroke-width="0.5" stroke-linecap="round" stroke-linejoin="round"><path d="M 335.789,284.211 A 9.474 9.474 0 1 1 335.789474 284.200526 Z"></path></g><g fill="#000000" fill-rule="evenodd" stroke="#000000" stroke-width="0.5" stroke-linecap="round" stroke-linejoin="round"><path d="M 335.789,305.263 A 9.474 9.474 0 1 1 335.789474 305.253158 Z"></path></g><g fill="#000000" fill-rule="evenodd" stroke="#000000" stroke-width="0.5" stroke-linecap="round" stroke-linejoin="round"><path d="M 335.789,326.316 A 9.474 9.474 0 1 1 335.789474 326.305789 Z"></path></g><g fill="#000000" fill-rule="evenodd" stroke="#000000" stroke-width="0.5" stroke-linecap="round" stroke-linejoin="round"><path d="M 335.789,347.368 A 9.474 9.474 0 1 1 335.789474 347.358421 Z"></path></g><g fill="#FFFFFF" fill-rule="evenodd" stroke="#000000" stroke-width="0.5" stroke-linecap="round" stroke-linejoin="round"><path d="M 356.842,31.579 A 9.474 9.474 0 1 1 356.842105 31.568947 Z"></path></g><g fill="#000000" fill-rule="evenodd" stroke="#000000" stroke-width="0.5" stroke-linecap="round" stroke-linejoin="round"><path d="M 356.842,52.632 A 9.474 9.474 0 1 1 356.842105 52.621579 Z"></path></g><g fill="#000000" fill-rule="evenodd" stroke="#000000" stroke-width="0.5" stroke-linecap="round" stroke-linejoin="round"><path d="M 356.842,73.684 A 9.474 9.474 0 1 1 356.842105 73.674211 Z"></path></g><g fill="#000000" fill-rule="evenodd" stroke="#000000" stroke-width="0.5" stroke-linecap="round" stroke-linejoin="round"><path d="M 356.842,178.947 A 9.474 9.474 0 1 1 356.842105 178.937368 Z"></path></g><g fill="#FFFFFF" fill-rule="evenodd" stroke="#000000" stroke-width="0.5" stroke-linecap="round" stroke-linejoin="round"><path d="M 356.842,221.053 A 9.474 9.474 0 1 1 356.842105 221.042632 Z"></path></g><g fill="#FFFFFF" fill-rule="evenodd" stroke="#000000" stroke-width="0.5" stroke-linecap="round" stroke-linejoin="round"><path d="M 356.842,263.158 A 9.474 9.474 0 1 1 356.842105 263.147895 Z"></path></g><g fill="#000000" fill-rule="evenodd" stroke="#000000" stroke-width="0.5" stroke-linecap="round" stroke-linejoin="round"><path d="M 356.842,284.211 A 9.474 9.474 0 1 1 356.842105 284.200526 Z"></path></g><g fill="#000000" fill-rule="evenodd" stroke="#000000" stroke-width="0.5" stroke-linecap="round" stroke-linejoin="round"><path d="M 356.842,305.263 A 9.474 9.474 0 1 1 356.842105 305.253158 Z"></path></g><g fill="#000000" fill-rule="evenodd" stroke="#000000" stroke-width="0.5" stroke-linecap="round" stroke-linejoin="round"><path d="M 356.842,347.368 A 9.474 9.474 0 1 1 356.842105 347.358421 Z"></path></g><g fill="#000000" fill-rule="evenodd" stroke="#000000" stroke-width="0.5" stroke-linecap="round" stroke-linejoin="round"><path d="M 356.842,368.421 A 9.474 9.474 0 1 1 356.842105 368.411053 Z"></path></g><g fill="#FFFFFF" fill-rule="evenodd" stroke="#000000" stroke-width="0.5" stroke-linecap="round" stroke-linejoin="round"><path d="M 377.895,10.526 A 9.474 9.474 0 1 1 377.894737 10.516316 Z"></path></g><g fill="#000000" fill-rule="evenodd" stroke="#000000" stroke-width="0.5" stroke-linecap="round" stroke-linejoin="round"><path d="M 377.895,31.579 A 9.474 9.474 0 1 1 377.894737 31.568947 Z"></path></g><g fill="#000000" fill-rule="evenodd" stroke="#000000" stroke-width="0.5" stroke-linecap="round" stroke-linejoin="round"><path d="M 377.895,52.632 A 9.474 9.474 0 1 1 377.894737 52.621579 Z"></path></g><g fill="#FFFFFF" fill-rule="evenodd" stroke="#000000" stroke-width="0.5" stroke-linecap="round" stroke-linejoin="round"><path d="M 377.895,200 A 9.474 9.474 0 1 1 377.894737 199.99 Z"></path></g><g fill="#FFFFFF" fill-rule="evenodd" stroke="#000000" stroke-width="0.5" stroke-linecap="round" stroke-linejoin="round"><path d="M 377.895,242.105 A 9.474 9.474 0 1 1 377.894737 242.095263 Z"></path></g><g fill="#FFFFFF" fill-rule="evenodd" stroke="#000000" stroke-width="0.5" stroke-linecap="round" stroke-linejoin="round"><path d="M 377.895,263.158 A 9.474 9.474 0 1 1 377.894737 263.147895 Z"></path></g><g fill="#000000" fill-rule="evenodd" stroke="#000000" stroke-width="0.5" stroke-linecap="round" stroke-linejoin="round"><path d="M 377.895,284.211 A 9.474 9.474 0 1 1 377.894737 284.200526 Z"></path></g><g fill="#000000" fill-rule="evenodd" stroke="#000000" stroke-width="0.5" stroke-linecap="round" stroke-linejoin="round"><path d="M 377.895,305.263 A 9.474 9.474 0 1 1 377.894737 305.253158 Z"></path></g><g fill="#FFFFFF" fill-rule="evenodd" stroke="#000000" stroke-width="0.5" stroke-linecap="round" stroke-linejoin="round"><path d="M 377.895,326.316 A 9.474 9.474 0 1 1 377.894737 326.305789 Z"></path></g><g fill="#000000" fill-rule="evenodd" stroke="#000000" stroke-width="0.5" stroke-linecap="round" stroke-linejoin="round"><path d="M 377.895,347.368 A 9.474 9.474 0 1 1 377.894737 347.358421 Z"></path></g><g fill="#FFFFFF" fill-rule="evenodd" stroke="#000000" stroke-width="0.5" stroke-linecap="round" stroke-linejoin="round"><path d="M 377.895,368.421 A 9.474 9.474 0 1 1 377.894737 368.411053 Z"></path></g><g fill="#000000" fill-rule="evenodd" stroke="#000000" stroke-width="0.5" stroke-linecap="round" stroke-linejoin="round"><path d="M 398.947,221.053 A 9.474 9.474 0 1 1 398.947368 221.042632 Z"></path></g><g fill="#FFFFFF" fill-rule="evenodd" stroke="#000000" stroke-width="0.5" stroke-linecap="round" stroke-linejoin="round"><path d="M 398.947,263.158 A 9.474 9.474 0 1 1 398.947368 263.147895 Z"></path></g><g fill="#000000" fill-rule="evenodd" stroke="#000000" stroke-width="0.5" stroke-linecap="round" stroke-linejoin="round"><path d="M 398.947,284.211 A 9.474 9.474 0 1 1 398.947368 284.200526 Z"></path></g><g fill="#FFFFFF" fill-rule="evenodd" stroke="#000000" stroke-width="0.5" stroke-linecap="round" stroke-linejoin="round"><path d="M 398.947,305.263 A 9.474 9.474 0 1 1 398.947368 305.253158 Z"></path></g><g fill="#FFFFFF" fill-rule="evenodd" stroke="#000000" stroke-width="0.5" stroke-linecap="round" stroke-linejoin="round"><path d="M 398.947,347.368 A 9.474 9.474 0 1 1 398.947368 347.358421 Z"></path></g><g fill="#000000" fill-rule="evenodd" stroke="#000000" stroke-width="0.4" stroke-linecap="round" stroke-linejoin="round"><path d="M 223.684,31.579 A 2.632 2.632 0 1 1 223.684211 31.568947 Z"></path></g></svg>