<svg xmlns="http://www.w3.org/2000/svg" fill="none" stroke="none"><defs></defs><g fill="#EFC171" fill-rule="evenodd" stroke="#000000" stroke-width="1" stroke-linecap="round" stroke-linejoin="round"><path d="M 0,0 L 0,400 L 400,400 L 400,0 Z"></path></g><g fill="#EFC171" fill-rule="evenodd" stroke="#000000" stroke-width="0.2" stroke-linecap="round" stroke-linejoin="round"><path d="M 10.526,10.526 L 10.526,389.474 Z"></path></g><g fill="#EFC171" fill-rule="evenodd" stroke="#000000" stroke-width="0.2" stroke-linecap="round" stroke-linejoin="round"><path d="M 10.526,10.526 L 389.474,10.526 Z"></path></g><g fill="#EFC171" fill-rule="evenodd" stroke="#000000" stroke-width="0.2" stroke-linecap="round" stroke-linejoin="round"><path d="M 31.579,10.526 L 31.579,389.474 Z"></path></g><g fill="#EFC171" fill-rule="evenodd" stroke="#000000" stroke-width="0.2" stroke-linecap="round" stroke-linejoin="round"><path d="M 10.526,31.579 L 389.474,31.579 Z"></path></g><g fill="#EFC171" fill-rule="evenodd" stroke="#000000" stroke-width="0.2" stroke-linecap="round" stroke-linejoin="round"><path d="M 52.632,10.526 L 52.632,389.474 Z"></path></g><g fill="#EFC171" fill-rule="evenodd" stroke="#000000" stroke-width="0.2" stroke-linecap="round" stroke-linejoin="round"><path d="M 10.526,52.632 L 389.474,52.632 Z"></path></g><g fill="#EFC171" fill-rule="evenodd" stroke="#000000" stroke-width="0.2" stroke-linecap="round" stroke-linejoin="round"><path d="M 73.684,10.526 L 73.684,389.474 Z"></path></g><g fill="#EFC171" fill-rule="evenodd" stroke="#000000" stroke-width="0.2" stroke-linecap="round" stroke-linejoin="round"><path d="M 10.526,73.684 L 389.474,73.684 Z"></path></g><g fill="#EFC171" fill-rule="evenodd" stroke="#000000" stroke-width="0.2" stroke-linecap="round" stroke-linejoin="round"><path d="M 94.737,10.526 L 94.737,389.474 Z"></path></g><g fill="#EFC171" fill-rule="evenodd" stroke="#000000" stroke-width="0.2" stroke-linecap="round" stroke-linejoin="round"><path d="M 10.526,94.737 L 389.474,94.737 Z"></path></g><g fill="#EFC171" fill-rule="evenodd" stroke="#000000" stroke-width="0.2" stroke-linecap="round" stroke-linejoin="round"><path d="M 115.789,10.526 L 115.789,389.474 Z"></path></g><g fill="#EFC171" fill-rule="evenodd" stroke="#000000" stroke-width="0.2" stroke-linecap="round" stroke-linejoin="round"><path d="M 10.526,115.789 L 389.474,115.789 Z"></path></g><g fill="#EFC171" fill-rule="evenodd" stroke="#000000" stroke-width="0.2" stroke-linecap="round" stroke-linejoin="round"><path d="M 136.842,10.526 L 136.842,389.474 Z"></path></g><g fill="#EFC171" fill-rule="evenodd" stroke="#000000" stroke-width="0.2" stroke-linecap="round" stroke-linejoin="round"><path d="M 10.526,136.842 L 389.474,136.842 Z"></path></g><g fill="#EFC171" fill-rule="evenodd" stroke="#000000" stroke-width="0.2" stroke-linecap="round" stroke-linejoin="round"><path d="M 157.895,10.526 L 157.895,389.474 Z"></path></g><g fill="#EFC171" fill-rule="evenodd" stroke="#000000" stroke-width="0.2" stroke-linecap="round" stroke-linejoin="round"><path d="M 10.526,157.895 L 389.474,157.895 Z"></path></g><g fill="#EFC171" fill-rule="evenodd" stroke="#000000" stroke-width="0.2" stroke-linecap="round" stroke-linejoin="round"><path d="M 178.947,10.526 L 178.947,389.474 Z"></path></g><g fill="#EFC171" fill-rule="evenodd" stroke="#000000" stroke-width="0.2" stroke-linecap="round" stroke-linejoin="round"><path d="M 10.526,178.947 L 389.474,178.947 Z"></path></g><g fill="#EFC171" fill-rule="evenodd" stroke="#000000" stroke-width="0.2" stroke-linecap="round" stroke-linejoin="round"><path d="M 200,10.526 L 200,389.474 Z"></path></g><g fill="#EFC171" fill-rule="evenodd" stroke="#000000" stroke-width="0.2" stroke-linecap="round" stroke-linejoin="round"><path d="M 10.526,200 L 389.474,200 Z"></path></g><g fill="#EFC171" fill-rule="evenodd" stroke="#000000" stroke-width="0.2" stroke-linecap="round" stroke-linejoin="round"><path d="M 221.053,10.526 L 221.053,389.474 Z"></path></g><g fill="#EFC171" fill-rule="evenodd" stroke="#000000" stroke-width="0.2" stroke-linecap="round" stroke-linejoin="round"><path d="M 10.526,221.053 L 389.474,221.053 Z"></path></g><g fill="#EFC171" fill-rule="evenodd" stroke="#000000" stroke-width="0.2" stroke-linecap="round" stroke-linejoin="round"><path d="M 242.105,10.526 L 242.105,389.474 Z"></path></g><g fill="#EFC171" fill-rule="evenodd" stroke="#000000" stroke-width="0.2" stroke-linecap="round" stroke-linejoin="round"><path d="M 10.526,242.105 L 389.474,242.105 Z"></path></g><g fill="#EFC171" fill-rule="evenodd" stroke="#000000" stroke-width="0.2" stroke-linecap="round" stroke-linejoin="round"><path d="M 263.158,10.526 L 263.158,389.474 Z"></path></g><g fill="#EFC171" fill-rule="evenodd" stroke="#000000" stroke-width="0.2" stroke-linecap="round" stroke-linejoin="round"><path d="M 10.526,263.158 L 389.474,263.158 Z"></path></g><g fill="#EFC171" fill-rule="evenodd" stroke="#000000" stroke-width="0.2" stroke-linecap="round" stroke-linejoin="round"><path d="M 284.211,10.526 L 284.211,389.474 Z"></path></g><g fill="#EFC171" fill-rule="evenodd" stroke="#000000" stroke-width="0.2" stroke-linecap="round" stroke-linejoin="round"><path d="M 10.526,284.211 L 389.474,284.211 Z"></path></g><g fill="#EFC171" fill-rule="evenodd" stroke="#000000" stroke-width="0.2" stroke-linecap="round" stroke-linejoin="round"><path d="M 305.263,10.526 L 305.263,389.474 Z"></path></g><g fill="#EFC171" fill-rule="evenodd" stroke="#000000" stroke-width="0.2" stroke-linecap="round" stroke-linejoin="round"><path d="M 10.526,305.263 L 389.474,305.263 Z"></path></g><g fill="#EFC171" fill-rule="evenodd" stroke="#000000" stroke-width="0.2" stroke-linecap="round" stroke-linejoin="round"><path d="M 326.316,10.526 L 326.316,389.474 Z"></path></g><g fill="#EFC171" fill-rule="evenodd" stroke="#000000" stroke-width="0.2" stroke-linecap="round" stroke-linejoin="round"><path d="M 10.526,326.316 L 389.474,326.316 Z"></path></g><g fill="#EFC171" fill-rule="evenodd" stroke="#000000" stroke-width="0.2" stroke-linecap="round" stroke-linejoin="round"><path d="M 347.368,10.526 L 347.368,389.474 Z"></path></g><g fill="#EFC171" fill-rule="evenodd" stroke="#000000" stroke-width="0.2" stroke-linecap="round" stroke-linejoin="round"><path d="M 10.526,347.368 L 389.474,347.368 Z"></path></g><g fill="#EFC171" fill-rule="evenodd" stroke="#000000" stroke-width="0.2" stroke-linecap="round" stroke-linejoin="round"><path d="M 368.421,10.526 L 368.421,389.474 Z"></path></g><g fill="#EFC171" fill-rule="evenodd" stroke="#000000" stroke-width="0.2" stroke-linecap="round" stroke-linejoin="round"><path d="M 10.526,368.421 L 389.474,368.421 Z"></path></g><g fill="#EFC171" fill-rule="evenodd" stroke="#000000" stroke-width="0.2" stroke-linecap="round" stroke-linejoin="round"><path d="M 389.474,10.526 L 389.474,389.474 Z"></path></g><g fill="#EFC171" fill-rule="evenodd" stroke="#000000" stroke-width="0.2" stroke-linecap="round" stroke-linejoin="round"><path d="M 10.526,389.474 L 389.474,389.474 Z"></path></g><g fill="#000000" fill-rule="evenodd" stroke="#000000" stroke-width="0.2" stroke-linecap="round" stroke-linejoin="round"><path d="M 75.789,73.684 A 2.105 2.105 0 1 1 75.789474 73.674211 Z"></path></g><g fill="#000000" fill-rule="evenodd" stroke="#000000" stroke-width="0.2" stroke-linecap="round" stroke-linejoin="round"><path d="M 75.789,200 A 2.105 2.105 0 1 1 75.789474 199.99 Z"></path></g><g fill="#000000" fill-rule="evenodd" stroke="#000000" stroke-width="0.2" stroke-linecap="round" stroke-linejoin="round"><path d="M 75.789,326.316 A 2.105 2.105 0 1 1 75.789474 326.305789 Z"></path></g><g fill="#000000" fill-rule="evenodd" stroke="#000000" stroke-width="0.2" stroke-linecap="round" stroke-linejoin="round"><path d="M 202.105,73.684 A 2.105 2.105 0 1 1 202.105263 73.674211 Z"></path></g><g fill="#000000" fill-rule="evenodd" stroke="#000000" stroke-width="0.2" stroke-linecap="round" stroke-linejoin="round"><path d="M 202.105,200 A 2.105 2.105 0 1 1 202.105263 199.99 Z"></path></g><g fill="#000000" fill-rule="evenodd" stroke="#000000" stroke-width="0.2" stroke-linecap="round" stroke-linejoin="round"><path d="M 202.105,326.316 A 2.105 2.105 0 1 1 202.105263 326.305789 Z"></path></g><g fill="#000000" fill-rule="evenodd" stroke="#000000" stroke-width="0.2" stroke-linecap="round" stroke-linejoin="round"><path d="M 328.421,73.684 A 2.105 2.105 0 1 1 328.421053 73.674211 Z"></path></g><g fill="#000000" fill-rule="evenodd" stroke="#000000" stroke-width="0.2" stroke-linecap="round" stroke-linejoin="round"><path d="M 328.421,200 A 2.105 2.105 0 1 1 328.421053 199.99 Z"></path></g><g fill="#000000" fill-rule="evenodd" stroke="#000000" stroke-width="0.2" stroke-linecap="round" stroke-linejoin="round"><path d="M 328.421,326.316 A 2.105 2.105 0 1 1 328.421053 326.305789 Z"></path></g><g fill="#FFFFFF" fill-rule="evenodd" stroke="#000000" stroke-width="0.5" stroke-linecap="round" stroke-linejoin="round"><path d="M 83.158,73.684 A 9.474 9.474 0 1 1 83.157895 73.674211 Z"></path></g><g fill="#000000" fill-rule="evenodd" stroke="#000000" stroke-width="0.5" stroke-linecap="round" stroke-linejoin="round"><path d="M 83.158,94.737 A 9.474 9.474 0 1 1 83.157895 94.726842 Z"></path></g><g fill="#FFFFFF" fill-rule="evenodd" stroke="#000000" stroke-width="0.5" stroke-linecap="round" stroke-linejoin="round"><path d="M 104.211,73.684 A 9.474 9.474 0 1 1 104.210526 73.674211 Z"></path></g><g fill="#000000" fill-rule="evenodd" stroke="#000000" stroke-width="0.5" stroke-linecap="round" stroke-linejoin="round"><path d="M 104.211,94.737 A 9.474 9.474 0 1 1 104.210526 94.726842 Z"></path></g><g fill="#FFFFFF" fill-rule="evenodd" stroke="#000000" stroke-width="0.5" stroke-linecap="round" stroke-linejoin="round"><path d="M 125.263,73.684 A 9.474 9.474 0 1 1 125.263158 73.674211 Z"></path></g><g fill="#000000" fill-rule="evenodd" stroke="#000000" stroke-width="0.5" stroke-linecap="round" stroke-linejoin="round"><path d="M 125.263,94.737 A 9.474 9.474 0 1 1 125.263158 94.726842 Z"></path></g><g fill="#FFFFFF" fill-rule="evenodd" stroke="#000000" stroke-width="0.5" stroke-linecap="round" stroke-linejoin="round"><path d="M 146.316,73.684 A 9.474 9.474 0 1 1 146.315789 73.674211 Z"></path></g><g fill="#000000" fill-rule="evenodd" stroke="#000000" stroke-width="0.5" stroke-linecap="round" stroke-linejoin="round"><path d="M 146.316,94.737 A 9.474 9.474 0 1 1 146.315789 94.726842 Z"></path></g><g fill="#000000" fill-rule="evenodd" stroke="#000000" stroke-width="0.5" stroke-linecap="round" stroke-linejoin="round"><path d="M 167.368,73.684 A 9.474 9.474 0 1 1 167.368421 73.674211 Z"></path></g><g fill="#FFFFFF" fill-rule="evenodd" stroke="#000000" stroke-width="0.5" stroke-linecap="round" stroke-linejoin="round"><path d="M 167.368,94.737 A 9.474 9.474 0 1 1 167.368421 94.726842 Z"></path></g><g fill="#000000" fill-rule="evenodd" stroke="#000000" stroke-width="0.5" stroke-linecap="round" stroke-linejoin="round"><path d="M 188.421,73.684 A 9.474 9.474 0 1 1 188.421053 73.674211 Z"></path></g><g fill="#FFFFFF" fill-rule="evenodd" stroke="#000000" stroke-width="0.5" stroke-linecap="round" stroke-linejoin="round"><path d="M 188.421,94.737 A 9.474 9.474 0 1 1 188.421053 94.726842 Z"></path></g><g fill="#000000" fill-rule="evenodd" stroke="#000000" stroke-width="0.5" stroke-linecap="round" stroke-linejoin="round"><path d="M 209.474,73.684 A 9.474 9.474 0 1 1 209.473684 73.674211 Z"></path></g><g fill="#FFFFFF" fill-rule="evenodd" stroke="#000000" stroke-width="0.5" stroke-linecap="round" stroke-linejoin="round"><path d="M 209.474,94.737 A 9.474 9.474 0 1 1 209.473684 94.726842 Z"></path></g><g fill="#000000" fill-rule="evenodd" stroke="#000000" stroke-width="0.5" stroke-linecap="round" stroke-linejoin="round"><path d="M 230.526,73.684 A 9.474 9.474 0 1 1 230.526316 73.674211 Z"></path></g><g fill="#FFFFFF" fill-rule="evenodd" stroke="#000000" stroke-width="0.5" stroke-linecap="round" stroke-linejoin="round"><path d="M 230.526,94.737 A 9.474 9.474 0 1 1 230.526316 94.726842 Z"></path></g><g fill="#FFFFFF" fill-rule="evenodd" stroke="#000000" stroke-width="0.5" stroke-linecap="round" stroke-linejoin="round"><path d="M 251.579,73.684 A 9.474 9.474 0 1 1 251.578947 73.674211 Z"></path></g><g fill="#000000" fill-rule="evenodd" stroke="#000000" stroke-width="0.5" stroke-linecap="round" stroke-linejoin="round"><path d="M 251.579,94.737 A 9.474 9.474 0 1 1 251.578947 94.726842 Z"></path></g><g fill="#FFFFFF" fill-rule="evenodd" stroke="#000000" stroke-width="0.5" stroke-linecap="round" stroke-linejoin="round"><path d="M 272.632,73.684 A 9.474 9.474 0 1 1 272.631579 73.674211 Z"></path></g><g fill="#000000" fill-rule="evenodd" stroke="#000000" stroke-width="0.5" stroke-linecap="round" stroke-linejoin="round"><path d="M 272.632,94.737 A 9.474 9.474 0 1 1 272.631579 94.726842 Z"></path></g><g fill="#FFFFFF" fill-rule="evenodd" stroke="#000000" stroke-width="0.5" stroke-linecap="round" stroke-linejoin="round"><path d="M 293.684,73.684 A 9.474 9.474 0 1 1 293.684211 73.674211 Z"></path></g><g fill="#000000" fill-rule="evenodd" stroke="#000000" stroke-width="0.5" stroke-linecap="round" stroke-linejoin="round"><path d="M 293.684,94.737 A 9.474 9.474 0 1 1 293.684211 94.726842 Z"></path></g><g fill="#FFFFFF" fill-rule="evenodd" stroke="#000000" stroke-width="0.5" stroke-linecap="round" stroke-linejoin="round"><path d="M 314.737,73.684 A 9.474 9.474 0 1 1 314.736842 73.674211 Z"></path></g><g fill="#000000" fill-rule="evenodd" stroke="#000000" stroke-width="0.5" stroke-linecap="round" stroke-linejoin="round"><path d="M 314.737,94.737 A 9.474 9.474 0 1 1 314.736842 94.726842 Z"></path></g><g fill="#000000" fill-rule="evenodd" stroke="#000000" stroke-width="0.2" stroke-linecap="round" stroke-linejoin="round"><path d="M 200,43.158 L 191.796,57.368 Z"></path></g><g fill="#000000" fill-rule="evenodd" stroke="#000000" stroke-width="0.2" stroke-linecap="round" stroke-linejoin="round"><path d="M 191.796,57.368 L 208.204,57.368 Z"></path></g><g fill="#000000" fill-rule="evenodd" stroke="#000000" stroke-width="0.2" stroke-linecap="round" stroke-linejoin="round"><path d="M 208.204,57.368 L 200,43.158 Z"></path></g><g fill="#000000" fill-rule="evenodd" stroke="#FFFFFF" stroke-width="0.2" stroke-linecap="round" stroke-linejoin="round"><path d="M 200,64.211 L 191.796,78.421 Z"></path></g><g fill="#000000" fill-rule="evenodd" stroke="#FFFFFF" stroke-width="0.2" stroke-linecap="round" stroke-linejoin="round"><path d="M 191.796,78.421 L 208.204,78.421 Z"></path></g><g fill="#000000" fill-rule="evenodd" stroke="#FFFFFF" stroke-width="0.2" stroke-linecap="round" stroke-linejoin="round"><path d="M 208.204,78.421 L 200,64.211 Z"></path></g><g fill="#000000" fill-rule="evenodd" stroke="#000000" stroke-width="0.2" stroke-linecap="round" stroke-linejoin="round"><path d="M 200,85.263 L 191.796,99.474 Z"></path></g><g fill="#000000" fill-rule="evenodd" stroke="#000000" stroke-width="0.2" stroke-linecap="round" stroke-linejoin="round"><path d="M 191.796,99.474 L 208.204,99.474 Z"></path></g><g fill="#000000" fill-rule="evenodd" stroke="#000000" stroke-width="0.2" stroke-linecap="round" stroke-linejoin="round"><path d="M 208.204,99.474 L 200,85.263 Z"></path></g><g fill="#000000" fill-rule="evenodd" stroke="#000000" stroke-width="0.2" stroke-linecap="round" stroke-linejoin="round"><path d="M 200,106.316 L 191.796,120.526 Z"></path></g><g fill="#000000" fill-rule="evenodd" stroke="#000000" stroke-width="0.2" stroke-linecap="round" stroke-linejoin="round"><path d="M 191.796,120.526 L 208.204,120.526 Z"></path></g><g fill="#000000" fill-rule="evenodd" stroke="#000000" stroke-width="0.2" stroke-linecap="round" stroke-linejoin="round"><path d="M 208.204,120.526 L 200,106.316 Z"></path></g><g fill="#000000" fill-rule="evenodd" stroke="#000000" stroke-width="0.2" stroke-linecap="round" stroke-linejoin="round"><path d="M 172.248,45.933 L 172.248,59.33 Z"></path></g><g fill="#000000" fill-rule="evenodd" stroke="#000000" stroke-width="0.2" stroke-linecap="round" stroke-linejoin="round"><path d="M 172.248,59.33 L 185.646,59.33 Z"></path></g><g fill="#000000" fill-rule="evenodd" stroke="#000000" stroke-width="0.2" stroke-linecap="round" stroke-linejoin="round"><path d="M 185.646,59.33 L 185.646,45.933 Z"></path></g><g fill="#000000" fill-rule="evenodd" stroke="#000000" stroke-width="0.2" stroke-linecap="round" stroke-linejoin="round"><path d="M 185.646,45.933 L 172.248,45.933 Z"></path></g><g fill="#000000" fill-rule="evenodd" stroke="#FFFFFF" stroke-width="0.2" stroke-linecap="round" stroke-linejoin="round"><path d="M 172.248,66.985 L 172.248,80.383 Z"></path></g><g fill="#000000" fill-rule="evenodd" stroke="#FFFFFF" stroke-width="0.2" stroke-linecap="round" stroke-linejoin="round"><path d="M 172.248,80.383 L 185.646,80.383 Z"></path></g><g fill="#000000" fill-rule="evenodd" stroke="#FFFFFF" stroke-width="0.2" stroke-linecap="round" stroke-linejoin="round"><path d="M 185.646,80.383 L 185.646,66.985 Z"></path></g><g fill="#000000" fill-rule="evenodd" stroke="#FFFFFF" stroke-width="0.2" stroke-linecap="round" stroke-linejoin="round"><path d="M 185.646,66.985 L 172.248,66.985 Z"></path></g><g fill="#000000" fill-rule="evenodd" stroke="#000000" stroke-width="0.2" stroke-linecap="round" stroke-linejoin="round"><path d="M 172.248,88.038 L 172.248,101.436 Z"></path></g><g fill="#000000" fill-rule="evenodd" stroke="#000000" stroke-width="0.2" stroke-linecap="round" stroke-linejoin="round"><path d="M 172.248,101.436 L 185.646,101.436 Z"></path></g><g fill="#000000" fill-rule="evenodd" stroke="#000000" stroke-width="0.2" stroke-linecap="round" stroke-linejoin="round"><path d="M 185.646,101.436 L 185.646,88.038 Z"></path></g><g fill="#000000" fill-rule="evenodd" stroke="#000000" stroke-width="0.2" stroke-linecap="round" stroke-linejoin="round"><path d="M 185.646,88.038 L 172.248,88.038 Z"></path></g><g fill="#000000" fill-rule="evenodd" stroke="#000000" stroke-width="0.2" stroke-linecap="round" stroke-linejoin="round"><path d="M 172.248,109.091 L 172.248,122.488 Z"></path></g><g fill="#000000" fill-rule="evenodd" stroke="#000000" stroke-width="0.2" stroke-linecap="round" stroke-linejoin="round"><path d="M 172.248,122.488 L 185.646,122.488 Z"></path></g><g fill="#000000" fill-rule="evenodd" stroke="#000000" stroke-width="0.2" stroke-linecap="round" stroke-linejoin="round"><path d="M 185.646,122.488 L 185.646,109.091 Z"></path></g><g fill="#000000" fill-rule="evenodd" stroke="#000000" stroke-width="0.2" stroke-linecap="round" stroke-linejoin="round"><path d="M 185.646,109.091 L 172.248,109.091 Z"></path></g><g fill="#000000" fill-rule="evenodd"><path d="M 78.715,57.785 Q 77.168,58.581 75.246,58.581 Q 72.652,58.581 71.309,57.175 Q 69.965,55.769 69.965,53.081 Q 69.965,50.394 71.340,48.980 Q 72.715,47.566 75.309,47.566 Q 76.824,47.566 78.699,48.019 L 78.699,49.425 Q 76.543,48.675 75.262,48.675 Q 73.449,48.675 72.504,49.808 Q 71.559,50.941 71.559,53.097 Q 71.559,55.160 72.567,56.285 Q 73.574,57.410 75.434,57.410 Q 77.012,57.410 78.715,56.503 L 78.715,57.785"></path></g><g fill="#000000" fill-rule="evenodd"><path d="M 69.277,79.368 L 73.262,68.884 L 74.731,68.884 L 78.652,79.368 L 77.043,79.368 L 75.949,76.462 L 71.746,76.462 L 70.652,79.368 L 69.277,79.368 M 72.168,75.353 L 75.543,75.353 L 73.871,70.868 L 72.168,75.353"></path></g><g fill="#FFFFFF" fill-rule="evenodd"><path d="M 70.481,100.421 L 70.481,89.937 L 78.090,89.937 L 78.090,91.046 L 71.965,91.046 L 71.965,94.405 L 77.387,94.405 L 77.387,95.515 L 71.965,95.515 L 71.965,99.312 L 78.402,99.312 L 78.402,100.421 L 70.481,100.421"></path></g><g fill="#000000" fill-rule="evenodd"><path d="M 79.090,116.599 L 79.090,121.192 Q 77.231,121.739 75.293,121.739 Q 69.793,121.739 69.793,116.255 Q 69.793,113.583 71.223,112.153 Q 72.652,110.724 75.293,110.724 Q 77.152,110.724 79.074,111.192 L 79.074,112.567 Q 76.856,111.833 75.293,111.833 Q 71.387,111.833 71.387,116.224 Q 71.387,118.349 72.465,119.489 Q 73.543,120.630 75.543,120.630 Q 76.371,120.630 77.621,120.364 L 77.621,117.692 L 75.856,117.692 L 75.856,116.599 L 79.090,116.599"></path></g><g fill="#000000" fill-rule="evenodd"><path d="M 91.361,58.316 L 91.361,47.831 L 94.721,47.831 Q 100.018,47.831 100.018,52.816 Q 100.018,55.441 98.635,56.878 Q 97.252,58.316 94.736,58.316 L 91.361,58.316 M 92.846,57.206 L 94.627,57.206 Q 96.549,57.206 97.486,56.160 Q 98.424,55.113 98.424,52.972 Q 98.424,51.113 97.518,50.066 Q 96.986,49.410 96.221,49.175 Q 95.455,48.941 93.939,48.941 L 92.846,48.941 L 92.846,57.206"></path></g><g fill="#000000" fill-rule="evenodd"><path d="M 91.361,79.368 L 91.361,68.884 L 94.721,68.884 Q 96.783,68.884 97.643,69.415 Q 98.502,69.947 98.502,71.259 Q 98.502,73.165 96.174,73.900 Q 98.908,74.650 98.908,76.743 Q 98.908,77.759 98.346,78.447 Q 97.893,78.993 97.229,79.181 Q 96.564,79.368 95.08,79.368 L 91.361,79.368 M 92.846,78.259 L 93.939,78.259 Q 96.049,78.259 96.697,77.947 Q 97.346,77.634 97.346,76.650 Q 97.346,75.572 96.502,75.001 Q 95.658,74.431 94.064,74.431 L 92.846,74.431 L 92.846,78.259 M 92.846,73.493 L 94.111,73.493 Q 96.971,73.493 96.971,71.493 Q 96.971,70.618 96.4,70.306 Q 95.83,69.993 94.221,69.993 L 92.846,69.993 L 92.846,73.493"></path></g><g fill="#FFFFFF" fill-rule="evenodd"><path d="M 91.549,100.421 L 91.549,89.937 L 98.674,89.937 L 98.674,91.046 L 93.033,91.046 L 93.033,94.562 L 97.955,94.562 L 97.955,95.655 L 93.033,95.655 L 93.033,100.421 L 91.549,100.421"></path></g><g fill="#000000" fill-rule="evenodd"><path d="M 91.361,121.474 L 91.361,110.989 L 92.846,110.989 L 92.846,115.411 L 98.018,115.411 L 98.018,110.989 L 99.502,110.989 L 99.502,121.474 L 98.018,121.474 L 98.018,116.521 L 92.846,116.521 L 92.846,121.474 L 91.361,121.474"></path></g><g fill="#000000" fill-rule="evenodd"><path d="M 112.32,58.238 L 112.32,56.941 Q 112.539,57.019 112.633,57.05 Q 113.82,57.535 114.461,57.535 Q 116.586,57.535 116.586,55.456 Q 116.586,54.378 115.875,53.8 Q 115.164,53.222 113.851,53.222 L 113.305,53.222 L 113.305,52.285 L 113.773,52.269 Q 114.976,52.269 115.664,51.714 Q 116.351,51.160 116.351,50.191 Q 116.351,48.613 114.617,48.613 Q 113.742,48.613 112.461,49.206 L 112.461,47.988 Q 113.711,47.566 114.680,47.566 Q 117.742,47.566 117.742,50.003 Q 117.742,51.847 115.555,52.628 Q 118.086,53.206 118.086,55.410 Q 118.086,56.863 117.148,57.722 Q 116.211,58.581 114.633,58.581 Q 113.836,58.581 112.32,58.238"></path></g><g fill="#000000" fill-rule="evenodd"><path d="M 112.726,79.368 L 112.726,78.322 L 114.976,78.322 L 114.976,70.04 L 112.726,70.603 L 112.726,69.525 L 116.367,68.618 L 116.367,78.322 L 118.617,78.322 L 118.617,79.368 L 112.726,79.368"></path></g><g fill="#FFFFFF" fill-rule="evenodd"><path d="M 112.398,100.468 L 112.398,99.218 Q 113.445,99.640 114.383,99.640 Q 114.961,99.640 115.383,99.46 Q 115.805,99.28 116.078,98.976 Q 116.351,98.671 116.476,98.249 Q 116.601,97.827 116.601,97.343 Q 116.601,96.827 116.445,96.429 Q 116.289,96.03 115.953,95.741 Q 115.617,95.452 115.086,95.304 Q 114.555,95.155 113.773,95.155 L 112.57,95.155 L 112.57,89.937 L 117.883,89.937 L 117.883,91.155 L 113.805,91.155 L 113.805,94.093 L 114.258,94.093 Q 115.180,94.093 115.891,94.304 Q 116.601,94.515 117.094,94.929 Q 117.586,95.343 117.836,95.944 Q 118.086,96.546 118.086,97.343 Q 118.086,98.234 117.773,98.866 Q 117.461,99.499 116.922,99.905 Q 116.383,100.312 115.680,100.499 Q 114.976,100.687 114.195,100.687 Q 113.805,100.687 113.359,100.632 Q 112.914,100.577 112.398,100.468"></path></g><g fill="#000000" fill-rule="evenodd"><path d="M 112.930,121.474 Q 113.133,120.255 113.508,119.356 Q 113.883,118.458 114.742,116.896 L 117.601,112.302 L 112.211,112.302 L 112.211,110.989 L 118.945,110.989 L 118.945,112.302 Q 114.898,118.255 114.430,121.474 L 112.930,121.474"></path></g><g fill="#000000" fill-rule="evenodd"><path d="M 137.170,58.316 L 137.170,55.347 L 132.513,55.347 L 132.513,54.285 L 137.170,47.831 L 138.482,47.831 L 138.482,54.206 L 139.888,54.206 L 139.888,55.347 L 138.482,55.347 L 138.482,58.316 L 137.170,58.316 M 133.888,54.206 L 137.263,54.206 L 137.263,49.535 L 133.888,54.206"></path></g><g fill="#000000" fill-rule="evenodd"><path d="M 133.013,79.368 L 133.013,78.150 Q 133.498,77.009 134.654,75.806 L 135.420,75.025 L 136.107,74.322 Q 137.482,72.915 137.482,71.572 Q 137.482,69.665 135.763,69.665 Q 134.748,69.665 133.279,70.509 L 133.279,69.275 Q 134.670,68.618 135.967,68.618 Q 137.342,68.618 138.154,69.415 Q 138.967,70.212 138.967,71.572 Q 138.967,72.493 138.545,73.204 Q 138.123,73.915 136.951,74.978 L 136.467,75.415 Q 134.998,76.759 134.701,78.150 L 138.904,78.150 L 138.904,79.368 L 133.013,79.368"></path></g><g fill="#FFFFFF" fill-rule="evenodd"><path d="M 134.404,94.905 Q 135.342,93.687 136.779,93.687 Q 138.092,93.687 138.834,94.562 Q 139.576,95.437 139.576,96.968 Q 139.576,98.749 138.732,99.718 Q 137.888,100.687 136.326,100.687 Q 134.732,100.687 133.81,99.304 Q 132.888,97.921 132.888,95.53 Q 132.888,92.765 133.99,91.21 Q 135.092,89.655 137.045,89.655 Q 137.967,89.655 139.013,90.062 L 139.013,91.28 Q 137.748,90.718 137.045,90.718 Q 134.404,90.718 134.404,94.905 M 138.201,97.296 Q 138.201,94.687 136.451,94.687 Q 135.545,94.687 134.998,95.304 Q 134.451,95.921 134.451,96.937 Q 134.451,98.124 135.013,98.882 Q 135.576,99.640 136.451,99.640 Q 138.201,99.640 138.201,97.296"></path></g><g fill="#000000" fill-rule="evenodd"><path d="M 135.076,115.755 Q 133.545,114.692 133.545,113.396 Q 133.545,112.208 134.412,111.466 Q 135.279,110.724 136.685,110.724 Q 137.998,110.724 138.795,111.349 Q 139.592,111.974 139.592,113.005 Q 139.592,114.505 137.638,115.755 Q 140.013,116.927 140.013,118.755 Q 140.013,120.083 139.021,120.911 Q 138.029,121.739 136.451,121.739 Q 134.888,121.739 133.943,120.95 Q 132.998,120.161 132.998,118.849 Q 132.998,117.005 135.076,115.755 M 136.857,115.317 Q 138.326,114.349 138.326,113.224 Q 138.326,112.552 137.842,112.161 Q 137.357,111.771 136.529,111.771 Q 135.748,111.771 135.279,112.146 Q 134.81,112.521 134.81,113.146 Q 134.81,113.724 135.248,114.192 Q 135.685,114.661 136.857,115.317 M 135.842,116.333 Q 134.998,116.974 134.693,117.466 Q 134.388,117.958 134.388,118.661 Q 134.388,119.567 134.974,120.130 Q 135.56,120.692 136.498,120.692 Q 137.420,120.692 137.998,120.216 Q 138.576,119.739 138.576,118.974 Q 138.576,118.364 138.224,117.942 Q 137.873,117.521 136.826,116.911 L 135.842,116.333"></path></g><g fill="rgba(0,0,0,0)" fill-rule="evenodd" stroke="#000000" stroke-width="0.4" stroke-linecap="round" stroke-linejoin="round"><path d="M 164.211,52.632 A 6.316 6.316 0 1 1 164.210526 52.621579 Z"></path></g><g fill="rgba(0,0,0,0)" fill-rule="evenodd" stroke="#FFFFFF" stroke-width="0.4" stroke-linecap="round" stroke-linejoin="round"><path d="M 164.211,73.684 A 6.316 6.316 0 1 1 164.210526 73.674211 Z"></path></g><g fill="rgba(0,0,0,0)" fill-rule="evenodd" stroke="#000000" stroke-width="0.4" stroke-linecap="round" stroke-linejoin="round"><path d="M 164.211,94.737 A 6.316 6.316 0 1 1 164.210526 94.726842 Z"></path></g><g fill="rgba(0,0,0,0)" fill-rule="evenodd" stroke="#000000" stroke-width="0.4" stroke-linecap="round" stroke-linejoin="round"><path d="M 164.211,115.789 A 6.316 6.316 0 1 1 164.210526 115.779474 Z"></path></g></svg>